<?xml version="1.0"?>
<svg xmlns:rdf="http://www.w3.org/1999/02/22-rdf-syntax-ns#" xmlns="http://www.w3.org/2000/svg" xmlns:cc="http://web.resource.org/cc/" xmlns:dc="http://purl.org/dc/elements/1.1/" xmlns:svg="http://www.w3.org/2000/svg" id="svg14350" viewBox="0 0 150.26 150.26" version="1.0">
  <g id="layer1" transform="translate(-274.87 -457.23)">
    <g id="g9115" transform="translate(100.54 -34.714)">
      <rect id="rect2638" ry="5.266" transform="rotate(45)" height="106.68" width="106.68" stroke="#000" y="171.25" x="524.04" stroke-width="3.7488" fill="#ff0"/>
      <g id="g4945" transform="matrix(.68143 0 0 .68143 -35.574 5.2662)">
        <path id="path4949" d="m410.54 893.52c-0.23-0.23-0.41-3.94-0.41-8.25v-7.83h-6.9l-0.3-5.73-0.3-5.73-10.5-1.36c-5.78-0.74-10.89-1.73-11.37-2.18-0.92-0.88-4.61-15.36-4.62-18.12-0.01-1.36 1.8-1.73 11.24-2.29 15.47-0.92 16.75-1.23 16.75-4.11 0-1.3-0.47-2.65-1.04-3s-5.56-1.13-11.09-1.73c-11.66-1.27-11.94-1.51-13.8-11.75-0.65-3.57-1.4-7.25-1.67-8.16-0.6-2.07 1.44-2.5 15.85-3.38l10.75-0.65v-3.41c0-1.87-0.34-3.4-0.75-3.4-3.24-0.01-19.07-2.38-20.3-3.03-0.91-0.48-2.29-4.08-3.33-8.65-0.98-4.3-1.99-8.57-2.24-9.48-0.39-1.42 0.8-1.74 8.33-2.27 4.83-0.35 11.13-0.87 13.99-1.16l5.2-0.54 0.3-5.19c0.29-5.06 0.37-5.19 3.6-5.5 2.37-0.22 3.55-0.97 4.18-2.64 1.06-2.79 2.16-3.24 6.63-2.72 2.44 0.29 3.39 0.9 3.39 2.18 0 1.98 1.9 3 5.58 3 2.26 0 2.42 0.35 2.42 5.42v5.42l6.25 0.55c3.44 0.31 9.74 0.83 14 1.17s7.75 0.81 7.75 1.06c0 2.38-4.59 17.82-5.59 18.83-0.72 0.72-3.92 1.6-7.11 1.97-14.94 1.7-14.3 1.48-14.3 5.04v3.24l9.15 0.65c5.04 0.36 11.11 0.65 13.5 0.65s4.35 0.36 4.35 0.8c0 3.77-4.23 18.89-5.55 19.86-0.91 0.66-5.6 1.51-10.44 1.89-10 0.79-10.86 1.12-11.24 4.44-0.24 2.07 0.26 2.49 3.73 3.14 2.2 0.41 8.39 1.04 13.75 1.4 7.16 0.48 9.75 1.01 9.75 2 0 3.61-3.24 16.08-4.56 17.53-1.03 1.15-4.71 2.04-11.97 2.9l-10.47 1.24v10.8h-7v16.83l-6.59 0.33c-3.62 0.19-6.77 0.15-7-0.08zm12.62-28.6c3.62-1.87 5.97-6.21 5.97-11.05 0-2.92-0.79-4.45-3.88-7.55-3.29-3.28-4.54-3.88-8.12-3.88-3.59 0-4.83 0.6-8.12 3.88-3.2 3.2-3.88 4.57-3.85 7.75 0.05 4.77 1.71 7.9 5.54 10.42 3.52 2.33 8.47 2.5 12.46 0.43zm-0.22-32.83c5.62-3.12 7.81-11.1 4.55-16.61-3.32-5.62-9.62-7.43-15.75-4.52-11.2 5.31-7.09 22.41 5.39 22.41 1.92 0 4.54-0.58 5.81-1.28zm0.22-32.17c5.3-2.74 7.61-10.9 4.62-16.29-5.93-10.67-22.51-6.41-22.61 5.81-0.07 9.08 9.69 14.77 17.99 10.48z"/>
        <path id="path4947" d="m410.13 884.94v-8.5h-3c-2.94 0-3-0.11-3-5.03 0-3.11-0.48-5.21-1.25-5.5-0.69-0.26-5.66-1.08-11.05-1.83-5.4-0.74-10.27-1.81-10.83-2.37-0.97-0.97-4.98-17.45-4.4-18.06 0.31-0.32 21.63-2.17 25.34-2.19 2.05-0.02 2.27-0.43 2-3.77l-0.31-3.75-10.92-1.21c-6.67-0.73-11.23-1.71-11.72-2.5-0.76-1.21-1.95-6.41-3.42-14.94l-0.63-3.65 9.35-0.61c5.13-0.34 11.14-0.72 13.34-0.85 3.76-0.23 4.02-0.44 4.32-3.63 0.19-2.01-0.2-3.73-0.96-4.2-0.71-0.43-5.24-1.1-10.06-1.48s-9.49-1.21-10.38-1.86c-1.35-0.99-5.39-14.57-5.41-18.2-0.01-0.75 4.54-1.37 13.49-1.85l13.5-0.72v-5.29c0-5.61 0.88-6.46 6.75-6.5 1.74-0.01 2.25-0.59 2.25-2.57 0-2.39 0.28-2.53 4.25-2.25 3.53 0.26 4.3 0.69 4.57 2.56 0.23 1.6 0.99 2.25 2.67 2.25 4.74 0 5.51 0.9 5.51 6.5v5.3l13.5 0.72c11.52 0.62 13.5 0.96 13.48 2.35-0.04 3.74-4.02 16.69-5.46 17.74-0.85 0.62-5.26 1.44-9.79 1.82-11.37 0.94-11.73 1.09-11.73 5.07 0 3.31 0.06 3.36 5.25 3.9 2.89 0.3 9.11 0.82 13.82 1.15l8.57 0.6-1.87 8.68c-1.03 4.77-2.42 9.22-3.08 9.89s-5.69 1.72-11.17 2.33-10.32 1.33-10.75 1.59c-0.42 0.26-0.77 2.03-0.77 3.92 0 3.3 0.15 3.44 3.75 3.49 6.15 0.08 23.21 1.58 23.72 2.09 0.6 0.6-3.32 17.1-4.29 18.08-0.41 0.41-4.33 1.21-8.71 1.79-13.95 1.84-13.47 1.63-13.47 5.99 0 5.61-0.82 7-4.11 7h-2.89v17h-14v-8.5zm11.93-19.09c3.05-1.22 4.48-2.64 6.15-6.09 1.9-3.92 2.03-4.99 1.03-8.33-3.63-12.12-20.84-12.12-24.11-0.01-1.64 6.09 1.34 11.9 7.5 14.62 3.9 1.72 4.7 1.7 9.43-0.19zm2.92-34.94c9.12-7.67 4.07-21.47-7.85-21.47-11.93 0-16.98 13.8-7.86 21.47 4.23 3.56 11.48 3.56 15.71 0zm-0.85-31.3c1.37-0.99 3.34-3.5 4.38-5.58 1.6-3.22 1.71-4.36 0.73-7.61-2.28-7.61-10.26-11.56-16.8-8.31-10.31 5.12-10.44 17.3-0.24 22.62 3.91 2.04 8.09 1.65 11.93-1.12z"/>
      </g>
    </g>
  </g>
  <metadata>
    <rdf:RDF>
      <cc:Work>
        <dc:format>image/svg+xml</dc:format>
        <dc:type rdf:resource="http://purl.org/dc/dcmitype/StillImage"/>
        <cc:license rdf:resource="http://creativecommons.org/licenses/publicdomain/"/>
        <dc:publisher>
          <cc:Agent rdf:about="http://openclipart.org/">
            <dc:title>Openclipart</dc:title>
          </cc:Agent>
        </dc:publisher>
        <dc:title>caution_traffic lights</dc:title>
        <dc:date>2007-10-19T23:47:40</dc:date>
        <dc:description>clip art, clipart, image, media, public domain, roadsign, roadsign, sign, sign, svg, traffic, traffic, </dc:description>
        <dc:source>http://openclipart.org/detail/7225/caution_traffic-lights-by-leomarc</dc:source>
        <dc:creator>
          <cc:Agent>
            <dc:title>Leomarc</dc:title>
          </cc:Agent>
        </dc:creator>
        <dc:subject>
          <rdf:Bag>
            <rdf:li>clip art</rdf:li>
            <rdf:li>clipart</rdf:li>
            <rdf:li>image</rdf:li>
            <rdf:li>media</rdf:li>
            <rdf:li>public domain</rdf:li>
            <rdf:li>roadsign</rdf:li>
            <rdf:li>sign</rdf:li>
            <rdf:li>svg</rdf:li>
            <rdf:li>traffic</rdf:li>
          </rdf:Bag>
        </dc:subject>
      </cc:Work>
      <cc:License rdf:about="http://creativecommons.org/licenses/publicdomain/">
        <cc:permits rdf:resource="http://creativecommons.org/ns#Reproduction"/>
        <cc:permits rdf:resource="http://creativecommons.org/ns#Distribution"/>
        <cc:permits rdf:resource="http://creativecommons.org/ns#DerivativeWorks"/>
      </cc:License>
    </rdf:RDF>
  </metadata>
</svg>
